<svg version="1.2" xmlns="http://www.w3.org/2000/svg" xmlns:xlink="http://www.w3.org/1999/xlink" overflow="visible" preserveAspectRatio="none" viewBox="0 0 24 24" width="20" height="20"><g><path xmlns:default="http://www.w3.org/2000/svg" id="spinner" d="M8.14,17.51c0-0.73-0.6-1.33-1.33-1.33c-0.73,0-1.33,0.59-1.33,1.33c0,0.73,0.59,1.33,1.33,1.33  c0.35,0,0.69-0.14,0.94-0.39C8.01,18.2,8.15,17.86,8.14,17.51L8.14,17.51z M12.93,18.71c-0.52-0.52-1.36-0.52-1.88,0  c-0.52,0.52-0.52,1.36,0,1.88c0.52,0.52,1.36,0.52,1.88,0c0.25-0.25,0.39-0.59,0.39-0.94C13.33,19.3,13.19,18.96,12.93,18.71z   M5.6,11.38c-0.52-0.52-1.36-0.52-1.88,0c-0.52,0.52-0.52,1.36,0,1.88c0.25,0.25,0.59,0.39,0.94,0.39c0.73,0,1.33-0.6,1.33-1.33  C5.99,11.97,5.85,11.63,5.6,11.38z M18.11,16.56c-0.52-0.51-1.35-0.51-1.87,0.01c-0.51,0.52-0.51,1.35,0.01,1.87  c0.52,0.51,1.35,0.51,1.87-0.01c0.24-0.25,0.38-0.58,0.38-0.93c0.01-0.35-0.13-0.68-0.38-0.93L18.11,16.56z M7.99,5.99  C7.35,5.34,6.3,5.33,5.65,5.98c0,0-0.01,0.01-0.01,0.01c-0.65,0.65-0.65,1.7,0,2.35c0,0,0,0,0,0c0.65,0.64,1.7,0.64,2.35-0.02  c0,0,0.01-0.01,0.01-0.01C8.62,7.67,8.62,6.64,7.99,5.99z M20.27,11.41c-0.52-0.52-1.36-0.52-1.88,0s-0.52,1.36,0,1.88  c0.52,0.52,1.36,0.52,1.88,0c0.25-0.25,0.39-0.59,0.39-0.94c0.01-0.37-0.13-0.72-0.4-0.97L20.27,11.41z M13.41,3.61  c-0.78-0.78-2.04-0.79-2.83-0.01C10.21,3.97,10,4.47,9.99,4.99c0,1.1,0.89,2,2,2c0.53,0,1.04-0.21,1.41-0.58  c0.38-0.37,0.6-0.89,0.59-1.42c0.01-0.53-0.2-1.04-0.58-1.41L13.41,3.61z M18.82,5.49c-0.9-0.92-2.37-0.94-3.29-0.05  c-0.46,0.44-0.71,1.06-0.71,1.7c-0.01,1.29,1.02,2.34,2.3,2.36c0.64,0.01,1.25-0.25,1.7-0.71c0.91-0.9,0.92-2.37,0.02-3.28  C18.84,5.5,18.83,5.5,18.82,5.49z" style="fill: rgb(18, 18, 18);" vector-effect="non-scaling-stroke"/></g></svg>